<svg xmlns="http://www.w3.org/2000/svg" viewBox="0 0 778.73 140.49"><defs><style>.cls-1{fill:#f03;}</style></defs><g id="Layer_2" data-name="Layer 2"><g id="Layer_1-2" data-name="Layer 1"><path d="M11.78,23a11.66,11.66,0,0,1-8.41-3.23A10.94,10.94,0,0,1,0,11.5,10.92,10.92,0,0,1,3.43,3.29,11.63,11.63,0,0,1,11.78,0,11.24,11.24,0,0,1,23.27,11.5,11.1,11.1,0,0,1,20,19.77,11.27,11.27,0,0,1,11.78,23Zm9,9.11v76.13H2.38V32.11Z"/><path d="M60.71,108.24H41.64V4.63h67.72V22.85H60.71v25h42.62V66H60.71Z"/><path d="M140.77,1.68V108.24H122.54V1.68Z"/><path d="M232.61,68.56A65,65,0,0,1,232,76.7H174a21.79,21.79,0,0,0,7.78,12.83q6,4.69,15.49,4.69a42.71,42.71,0,0,0,25.1-7.85l7.29,13q-14.16,10.52-33.09,10.52a47.6,47.6,0,0,1-18.44-3.37,34.22,34.22,0,0,1-13-9A39.19,39.19,0,0,1,157.8,84.9a44.22,44.22,0,0,1-2.45-14.79q0-17.38,10.94-28.47,11.07-11.35,28.6-11.35,16.41,0,27.06,10.37T232.61,68.56Zm-37.72-23a20.36,20.36,0,0,0-13.53,4.63A22.26,22.26,0,0,0,174,62.81h40.66a19.09,19.09,0,0,0-19.77-17.24Z"/><path d="M285.33,69.83l24.81,38.41h-21l-15.56-25.8-16,25.8H236.39l25.52-39L239.06,32.11h21L274,56.22l14.72-24.11h20.75Z"/><path d="M369.59,109.79q-22.71,0-38-14.73T316.31,56.79q0-23.57,15.57-38.7,15.69-15.28,38-15.29A57.65,57.65,0,0,1,395.6,8.69a48.16,48.16,0,0,1,18.86,15.85L401.42,37Q388.8,21.32,370.71,21.31A33.56,33.56,0,0,0,346,31.41q-10,10.23-10,25.38T345.9,81.6q9.81,9.83,24.67,9.82,19.08,0,31.27-15.71l13.32,12.06a53.88,53.88,0,0,1-19.49,16A57.49,57.49,0,0,1,369.59,109.79Z"/><path d="M485.13,41.78V32.11h17.38v76.13H485.13V98.85a31.83,31.83,0,0,1-24.82,11.22q-16.41,0-27.06-11.5T422.59,69.83q0-17.25,10.66-28.33t27.06-11.21Q474.89,30.29,485.13,41.78Zm.42,28.33a23.1,23.1,0,0,0-6.31-16.41,22.68,22.68,0,0,0-32.25,0,23.74,23.74,0,0,0-6.17,16.41A23.9,23.9,0,0,0,447,86.65a22.68,22.68,0,0,0,32.25,0A23.26,23.26,0,0,0,485.55,70.11Z"/><path d="M539.39,108.24H521.16V32.11h17.53V42.62q7-12.46,21.17-12.47A26.94,26.94,0,0,1,569,31.69l-1.54,17.52a30.07,30.07,0,0,0-8.83-1.54q-8.83,0-14,6t-5.19,17.46Z"/><path d="M635,41.22V32.11h17.11v68.56q0,18.22-11.64,29T610.2,140.49a58.07,58.07,0,0,1-34.64-10.93L583,115.67q12.75,9,26.78,9,11.49,0,18.08-6.1t6.59-16.06V98q-9.26,10.38-24.25,10.37-16.69,0-27.35-11.07T572.2,69.4q0-17.1,11.08-28T610.9,30.29A30.59,30.59,0,0,1,635,41.22ZM612.86,92.4A21.22,21.22,0,0,0,628.7,86,22.77,22.77,0,0,0,635,69.54q0-9.81-6.31-16.12a22.85,22.85,0,0,0-31.82,0q-6.32,6.31-6.31,16.12A22.77,22.77,0,0,0,596.88,86,21.39,21.39,0,0,0,612.86,92.4Z"/><path d="M666.42,70.11q0-16.83,11.36-28.33,11.63-11.62,29.3-11.63t29.17,11.63q11.49,11.51,11.49,28.33,0,17.1-11.49,28.6t-29.17,11.5q-17.8,0-29.3-11.5T666.42,70.11Zm63,0a22.38,22.38,0,0,0-6.46-16.27,22,22,0,0,0-31.68,0,22.37,22.37,0,0,0-6.45,16.27,22.51,22.51,0,0,0,6.45,16.4,22,22,0,0,0,31.68,0A22.52,22.52,0,0,0,729.38,70.11Z"/><path class="cls-1" d="M768.07,110.49a10.83,10.83,0,0,1-7.85-3.16A10.45,10.45,0,0,1,757,99.55,10.07,10.07,0,0,1,760.22,92a10.93,10.93,0,0,1,7.85-3.09,10.55,10.55,0,0,1,10.66,10.66,10.69,10.69,0,0,1-3.09,7.78A10.18,10.18,0,0,1,768.07,110.49Z"/></g></g></svg>