<svg xmlns="http://www.w3.org/2000/svg" viewBox="0 0 21.5 100"><defs><style>.cls-1{fill:#ed1c24;}</style></defs><g id="Layer_2" data-name="Layer 2"><g id="Layer_1-2" data-name="Layer 1"><path d="M18.46,30.27a10.44,10.44,0,0,1-7.58,3,10.8,10.8,0,0,1-7.77-3,9.45,9.45,0,0,1-.91-1V91.51A8.49,8.49,0,0,0,10.68,100h0a8.49,8.49,0,0,0,8.49-8.49v-62A10.27,10.27,0,0,1,18.46,30.27Z"/><path class="cls-1" d="M21.5,10.62a10.27,10.27,0,0,1-3,7.65,10.44,10.44,0,0,1-7.58,3,10.8,10.8,0,0,1-7.77-3A10.1,10.1,0,0,1,0,10.62,10,10,0,0,1,3.18,3.05a10.7,10.7,0,0,1,7.7-3A10.4,10.4,0,0,1,21.5,10.62Z"/></g></g></svg>